<?xml version="1.0" standalone="no"?>
<!DOCTYPE svg PUBLIC "-//W3C//DTD SVG 20010904//EN"
 "http://www.w3.org/TR/2001/REC-SVG-20010904/DTD/svg10.dtd">
<svg version="1.0" xmlns="http://www.w3.org/2000/svg"
 width="64.000000pt" height="64.000000pt" viewBox="0 0 64.000000 64.000000"
 preserveAspectRatio="xMidYMid meet">

<g transform="translate(0.000000,64.000000) scale(0.100000,-0.100000)"
fill="#000000" stroke="none">
<path d="M252 600 c-23 -11 -50 -32 -59 -49 -14 -23 -26 -30 -61 -34 -144 -16
-178 -196 -49 -260 35 -18 37 -21 37 -68 l0 -49 40 0 40 0 0 78 c0 87 -8 102
-55 102 -38 0 -65 26 -65 62 0 47 56 73 99 46 28 -17 49 -3 61 41 25 94 139
95 159 2 8 -43 33 -61 61 -43 46 28 100 2 100 -50 0 -33 -29 -58 -66 -58 -46
0 -54 -16 -54 -102 l0 -78 40 0 40 0 0 49 c0 47 2 50 37 68 47 23 73 59 79
109 9 75 -47 142 -128 151 -35 4 -47 11 -61 34 -18 32 -86 69 -127 69 -14 0
-44 -9 -68 -20z"/>
<path d="M280 160 l0 -60 -80 0 -80 0 0 -40 0 -40 200 0 200 0 0 40 0 40 -80
0 -80 0 0 60 0 60 -40 0 -40 0 0 -60z"/>
</g>
</svg>
